<svg xmlns="http://www.w3.org/2000/svg">
  <symbol id="home" viewBox="0 0 24 24">
    <path d="m3 10 9-7 9 7v10a1 1 0 0 1-1 1h-5v-7H9v7H4a1 1 0 0 1-1-1z"/>
  </symbol>
  <symbol id="messages" viewBox="0 0 24 24">
    <path d="M20 11.5a7.5 7.5 0 0 1-7.5 7.5H7l-4 2v-5.5a7.5 7.5 0 1 1 17-4z"/>
    <path d="M8 10h8M8 14h5"/>
  </symbol>
  <symbol id="grades" viewBox="0 0 24 24">
    <path d="M5 3.5h13a1 1 0 0 1 1 1V21H6a3 3 0 0 1-3-3V6a2.5 2.5 0 0 1 2-2.5z"/>
    <path d="M3 18a3 3 0 0 1 3-3h13M8 8h7M8 11h5"/>
  </symbol>
  <symbol id="calendar" viewBox="0 0 24 24">
    <rect x="3" y="5" width="18" height="16" rx="2"/>
    <path d="M7.5 3v4M16.5 3v4M3 10h18M8 14h3M8 17h5"/>
  </symbol>
  <symbol id="attendance" viewBox="0 0 24 24">
    <circle cx="9" cy="8" r="3"/>
    <path d="M3.5 20v-1.5a5.5 5.5 0 0 1 9.8-3.4M14 18l2.5 2.5L21 15"/>
  </symbol>
  <symbol id="remarks" viewBox="0 0 24 24">
    <path d="M8 4H5a2 2 0 0 0-2 2v14a1 1 0 0 0 1 1h16a1 1 0 0 0 1-1V6a2 2 0 0 0-2-2h-3"/>
    <rect x="8" y="2.5" width="8" height="4" rx="1"/>
    <path d="M8 11h8M8 15h6"/>
  </symbol>
  <symbol id="settings" viewBox="0 0 24 24">
    <path d="M4 6h9M17 6h3M4 12h3M11 12h9M4 18h11M19 18h1"/>
    <circle cx="15" cy="6" r="2"/>
    <circle cx="9" cy="12" r="2"/>
    <circle cx="17" cy="18" r="2"/>
  </symbol>
  <symbol id="teachers" viewBox="0 0 24 24">
    <circle cx="9" cy="8" r="3"/>
    <path d="M3.5 20v-1.5a5.5 5.5 0 0 1 11 0V20zM16.5 5.5a3 3 0 0 1 0 5.5M17 14a4.5 4.5 0 0 1 3.5 4.4V20"/>
  </symbol>
  <symbol id="chevron-left" viewBox="0 0 24 24">
    <path d="m15 18-6-6 6-6"/>
  </symbol>
  <symbol id="chevron-right" viewBox="0 0 24 24">
    <path d="m9 18 6-6-6-6"/>
  </symbol>
  <symbol id="calendar-empty" viewBox="0 0 24 24">
    <rect x="3" y="5" width="18" height="16" rx="2"/>
    <path d="M7.5 3v4M16.5 3v4M3 10h18M9 15h6"/>
  </symbol>
</svg>

